# xmcd
#
# Track frame offsets:
# 150
# 15956
# 33197
# 51937
# 71930
# 88831
# 103614
# 118393
# 137387
# 153763
# 175349
# 191175
# 208465
# 228893
# 248476
# 262830
#
# Disc length: 3736 seconds
#
#
# Revision: 1
# Processed by: cddbd v1.5.2PL0 Copyright (c) Steve Scherf et al.
# Submitted via: FreeRIP 2.951 
#
DISCID=d80e9610
DTITLE=Enrique Iglesias - Escape
DYEAR=1900
DGENRE=Dance
TTITLE0=Enrique Iglesias - Escape
TTITLE1=Enrique Iglesias - Don't Turn Off The Lights
TTITLE2=Enrique Iglesias - Love To See You Cry
TTITLE3=Enrique Iglesias - Hero
TTITLE4=Enrique Iglesias - I Will Survive
TTITLE5=Enrique Iglesias - Love 4 Fun
TTITLE6=Enrique Iglesias - Maybe
TTITLE7=Enrique Iglesias - One Night Stand
TTITLE8=Enrique Iglesias - She Be The One
TTITLE9=Enrique Iglesias - If The World Crashes Down
TTITLE10=Enrique Iglesias - Escapar
TTITLE11=Enrique Iglesias - No Apagues La Luz
TTITLE12=Enrique Iglesias - Heroe
TTITLE13=Enrique Iglesias - Hero (Metro Mix)
TTITLE14=Enrique Iglesias - Maybe (Mark Taylor Mix)
TTITLE15=Enrique Iglesias Ft. Lionel Richie - To Love A Women
EXTD=
EXTT0=
EXTT1=
EXTT2=
EXTT3=
EXTT4=
EXTT5=
EXTT6=
EXTT7=
EXTT8=
EXTT9=
EXTT10=
EXTT11=
EXTT12=
EXTT13=
EXTT14=
EXTT15=
PLAYORDER=
